<svg width="11" height="10" viewBox="0 0 11 10" fill="none" xmlns="http://www.w3.org/2000/svg">
<path d="M6.1875 0.664062L10.3125 4.60156C10.4297 4.71875 10.5 4.85938 10.5 5.02344C10.5 5.16406 10.4297 5.30469 10.3125 5.42188L6.1875 9.35938C5.97656 9.57031 5.60156 9.57031 5.39062 9.33594C5.17969 9.125 5.17969 8.75 5.41406 8.53906L8.53125 5.58594H0.5625C0.234375 5.58594 0 5.32812 0 5.02344C0 4.69531 0.234375 4.46094 0.5625 4.46094H8.53125L5.41406 1.48438C5.17969 1.27344 5.17969 0.898438 5.39062 0.6875C5.60156 0.453125 5.95312 0.453125 6.1875 0.664062Z" fill="#1C2A42"/>
</svg>
