<svg width="17" height="17" viewBox="0 0 17 17" fill="none" xmlns="http://www.w3.org/2000/svg">
<mask id="mask0_1_14" style="mask-type:luminance" maskUnits="userSpaceOnUse" x="0" y="0" width="17" height="17">
<path d="M16.4396 0.354858H0.439575V16.3549H16.4396V0.354858Z" fill="white"/>
</mask>
<g mask="url(#mask0_1_14)">
<path d="M16.3972 2.49011C16.4102 2.56182 16.4343 2.63363 16.4343 2.70533C16.4362 5.68709 16.4347 8.66887 16.4396 11.6505C16.4399 11.8117 16.3791 11.8887 16.2502 11.9611C15.0595 12.6298 13.872 13.3046 12.6838 13.978C12.619 14.0147 12.5558 14.0542 12.4919 14.0923C12.475 13.9974 12.4435 13.9024 12.4433 13.8074C12.4402 12.4461 12.4414 11.0847 12.4406 9.72339C12.4406 9.63567 12.4331 9.54789 12.4283 9.44311C12.3684 9.46624 12.3371 9.47404 12.3096 9.48963C11.0371 10.2107 9.7648 10.9325 8.49253 11.6542C8.47665 11.6496 8.4607 11.6448 8.44489 11.6401C8.44528 10.2166 8.44455 8.79331 8.44826 7.37001C8.44859 7.23657 8.47751 7.10313 8.49313 6.96976C8.92597 6.72681 9.35955 6.48499 9.79174 6.24064C11.578 5.23059 13.3641 4.2204 15.1496 3.20876C15.5672 2.97214 15.9815 2.7298 16.3972 2.49011Z" fill="#1F009D"/>
<path d="M8.44523 11.6401C8.46104 11.6448 8.47699 11.6495 8.49287 11.6543C8.47587 11.753 8.44741 11.8515 8.44443 11.9506C8.43722 12.1869 8.44192 12.4236 8.44192 12.6602C8.44192 13.7754 8.44278 14.8906 8.4406 16.0058C8.4404 16.1192 8.47309 16.2489 8.34445 16.3236C7.09878 15.6171 5.8537 14.9098 4.60751 14.2043C3.5342 13.5968 2.45913 12.9926 1.38632 12.384C1.0844 12.2127 0.787828 12.0312 0.488892 11.8544C0.490334 11.719 0.492909 11.5835 0.493008 11.448C0.493114 8.61135 0.493114 5.77481 0.493114 2.93814C0.493114 2.86188 0.488587 2.7853 0.495377 2.70968C0.500207 2.65598 0.520576 2.60387 0.540739 2.52454C0.684345 2.60577 0.805007 2.6744 0.925882 2.7424C1.51737 3.07499 2.10958 3.40608 2.70015 3.74017C3.28351 4.0701 3.86544 4.40296 4.44796 4.73463C4.44644 6.23265 4.44425 7.73074 4.44584 9.22896C4.44591 9.30001 4.47986 9.37113 4.49799 9.44218C5.74564 10.1497 6.99323 10.8576 8.24188 11.5635C8.30441 11.5987 8.37727 11.6149 8.44523 11.6401Z" fill="#6DCAFF"/>
<path d="M4.4979 9.44196C4.47971 9.37091 4.44589 9.29986 4.44576 9.22874C4.44424 7.73065 4.44649 6.23257 4.44794 4.73441C5.30881 4.25558 6.17073 3.77848 7.0304 3.29732C7.47053 3.05096 7.90675 2.79729 8.34469 2.54701C8.43376 2.50486 8.52555 2.46768 8.61164 2.41991C9.8055 1.75793 11 1.09722 12.1902 0.428355C12.3494 0.33886 12.4725 0.325509 12.6407 0.41861C13.8136 1.06714 14.9932 1.70243 16.1701 2.34344C16.2488 2.38633 16.3216 2.44088 16.3971 2.49003C15.9814 2.72972 15.5672 2.97206 15.1497 3.20857C13.3644 4.22018 11.5781 5.23044 9.7918 6.24043C9.35968 6.48478 8.9261 6.7266 8.49319 6.96955C8.40035 6.93808 8.30042 6.92009 8.21585 6.8731C7.63769 6.5509 7.0625 6.22257 6.48638 5.8963C5.91741 5.5741 5.34884 5.25117 4.77888 4.9309C4.70344 4.88851 4.62072 4.86005 4.53754 4.82326C4.47547 5.07261 4.45489 8.03879 4.4979 9.44196Z" fill="#5429FF"/>
<path d="M8.34424 16.3236C8.47288 16.2489 8.44026 16.1192 8.44046 16.0058C8.44264 14.8906 8.44178 13.7754 8.44178 12.6602C8.44178 12.4238 8.43708 12.187 8.44423 11.9506C8.44734 11.8513 8.47586 11.753 8.49273 11.6543C9.765 10.9325 11.0373 10.2107 12.3098 9.48964C12.3372 9.47418 12.3687 9.46624 12.4285 9.44312C12.4333 9.54789 12.4407 9.63561 12.4408 9.72339C12.4415 11.0847 12.4403 12.4461 12.4436 13.8074C12.4437 13.9025 12.4751 13.9974 12.4921 14.0923C11.7314 14.5215 10.9707 14.9504 10.2102 15.3799C9.6719 15.6839 9.1343 15.9892 8.5957 16.2927C8.51742 16.3367 8.43688 16.3899 8.34424 16.3236Z" fill="#B9E5FF"/>
<path d="M8.57392 2.54712C8.13591 2.79751 7.69976 3.05108 7.25963 3.29744C6.40002 3.77859 5.53817 4.25575 4.67717 4.73452C4.09464 4.40292 3.51279 4.06999 2.92932 3.74006C2.33866 3.406 1.74644 3.07491 1.15505 2.74233C1.03418 2.67433 0.913521 2.6058 0.769916 2.52446C0.749752 2.60379 0.729384 2.6559 0.724546 2.7096C0.717757 2.78533 0.722283 2.86202 0.722283 2.93817C0.722283 5.77484 0.722283 8.61138 0.722078 11.4481C0.722078 11.5835 0.719405 11.719 0.717969 11.8544C0.702841 11.7555 0.674558 11.6565 0.674453 11.5576C0.672189 8.62738 0.674452 5.69719 0.668794 2.76712C0.668384 2.55199 0.739568 2.43401 0.925757 2.33434C2.0857 1.71366 3.24122 1.08389 4.39315 0.44764C4.5881 0.339923 4.73547 0.341622 4.93525 0.457385C6.017 1.0842 7.11041 1.68983 8.19851 2.30521C8.32775 2.37829 8.44905 2.46621 8.57392 2.54712Z" fill="#99DAFF"/>
<path d="M4.49789 9.44201C4.45488 8.03884 4.47546 5.07252 4.5374 4.82324C4.62071 4.85997 4.70343 4.88843 4.77874 4.93082C5.3487 5.25115 5.91727 5.57409 6.48624 5.89628C7.06242 6.22248 7.63754 6.55082 8.21584 6.87302C8.30041 6.92014 8.4004 6.93807 8.49318 6.96953C8.47756 7.10297 8.44878 7.23634 8.44838 7.36978C8.44467 8.79308 8.4454 10.2165 8.44494 11.6398C8.37698 11.6147 8.30425 11.5985 8.24172 11.5631C6.9932 10.8576 5.74568 10.1495 4.49789 9.44201Z" fill="#2900CE"/>
</g>
</svg>
